<?xml version="1.0" encoding="UTF-8"?>
<svg width="18px" height="16px" viewBox="0 0 18 16" version="1.1" xmlns="http://www.w3.org/2000/svg" xmlns:xlink="http://www.w3.org/1999/xlink">
    <defs></defs>
    <g id="Page-1" stroke="none" stroke-width="1" fill="none" fill-rule="evenodd">
        <g id="Смена-пароля-(1440)-prod" transform="translate(-863.000000, -172.000000)">
            <g id="new-cloud">
                <g id="outline-visibility_off-24px" transform="translate(860.000000, 168.000000)">
                    <rect id="Rectangle-3" x="0" y="0" width="24" height="24"></rect>
                    <g id="Outline" transform="translate(3.000000, 4.000000)" fill="#707C91" fill-rule="nonzero">
                        <g id="Group">
                            <path d="M9,3.2 C12.1009091,3.2 14.8663636,4.904 16.2163636,7.6 C15.7336364,8.576 15.0545455,9.416 14.2445455,10.096 L15.3981818,11.224 C16.5354545,10.24 17.4354545,9.008 18,7.6 C16.5845455,4.088 13.0909091,1.6 9,1.6 C7.96090909,1.6 6.96272727,1.76 6.02181818,2.056 L7.37181818,3.376 C7.90363636,3.272 8.44363636,3.2 9,3.2 Z" id="Shape"></path>
                            <path d="M8.12454545,4.112 L9.81818182,5.768 C10.2845455,5.968 10.6609091,6.336 10.8654545,6.792 L12.5590909,8.448 C12.6245455,8.176 12.6736364,7.888 12.6736364,7.592 C12.6818182,5.608 11.0290909,4 9,4 C8.69727273,4 8.41090909,4.04 8.12454545,4.112 Z" id="Shape"></path>
                            <path d="M0.826363636,1.496 L3.01909091,3.64 C1.68545455,4.664 0.63,6.024 0,7.6 C1.41545455,11.112 4.90909091,13.6 9,13.6 C10.2436364,13.6 11.4381818,13.368 12.5345455,12.944 L15.3327273,15.68 L16.4863636,14.552 L1.98,0.36 L0.826363636,1.496 Z M6.96272727,7.496 L9.09818182,9.584 C9.06545455,9.592 9.03272727,9.6 9,9.6 C7.87090909,9.6 6.95454545,8.704 6.95454545,7.6 C6.95454545,7.56 6.96272727,7.536 6.96272727,7.496 Z M4.18090909,4.776 L5.61272727,6.176 C5.42454545,6.616 5.31818182,7.096 5.31818182,7.6 C5.31818182,9.584 6.97090909,11.2 9,11.2 C9.51545455,11.2 10.0063636,11.096 10.4481818,10.912 L11.25,11.696 C10.53,11.888 9.77727273,12 9,12 C5.89909091,12 3.13363636,10.296 1.78363636,7.6 C2.35636364,6.456 3.19090909,5.512 4.18090909,4.776 Z" id="Shape"></path>
                        </g>
                    </g>
                </g>
            </g>
        </g>
    </g>
</svg>
