<?xml version="1.0" encoding="UTF-8"?>
<svg width="18px" height="16px" viewBox="0 0 18 16" version="1.1" xmlns="http://www.w3.org/2000/svg" xmlns:xlink="http://www.w3.org/1999/xlink">
    <defs></defs>
    <g id="Page-1" stroke="none" stroke-width="1" fill="none" fill-rule="evenodd">
        <g id="Смена-пароля-(1440)-prod" transform="translate(-863.000000, -237.500000)" >
            <g id="new-cloud">
                <g id="outline-visibility-24px" transform="translate(860.000000, 233.000000)">
                    <rect id="Rectangle-3" x="0" y="0" width="24" height="24"></rect>
                    <g id="Outline" transform="translate(3.000000, 6.000000)" fill="#707C91" fill-rule="nonzero">
                        <g id="Group">
                            <path d="M9,1.6 C12.1009091,1.6 14.8663636,3.304 16.2163636,6 C14.8663636,8.696 12.1009091,10.4 9,10.4 C5.89909091,10.4 3.13363636,8.696 1.78363636,6 C3.13363636,3.304 5.89909091,1.6 9,1.6 Z M9,0 C4.90909091,0 1.41545455,2.488 0,6 C1.41545455,9.512 4.90909091,12 9,12 C13.0909091,12 16.5845455,9.512 18,6 C16.5845455,2.488 13.0909091,0 9,0 Z" id="Shape"></path>
                            <path d="M9,4 C10.1290909,4 11.0454545,4.896 11.0454545,6 C11.0454545,7.104 10.1290909,8 9,8 C7.87090909,8 6.95454545,7.104 6.95454545,6 C6.95454545,4.896 7.87090909,4 9,4 Z M9,2.4 C6.97090909,2.4 5.31818182,4.016 5.31818182,6 C5.31818182,7.984 6.97090909,9.6 9,9.6 C11.0290909,9.6 12.6818182,7.984 12.6818182,6 C12.6818182,4.016 11.0290909,2.4 9,2.4 Z" id="Shape"></path>
                        </g>
                    </g>
                </g>
            </g>
        </g>
    </g>
</svg>
